<svg xmlns="http://www.w3.org/2000/svg" viewBox="0 0 172 172"><g fill="none" stroke-miterlimit="10" font-family="none" font-weight="none" font-size="none" text-anchor="none" style="mix-blend-mode:normal"><path d="M0 172V0h172v172z"/><path d="M130.806 21.444a5.374 5.374 0 0 0-.7.056h-20.814a5.376 5.376 0 1 0 0 10.75h8.111L85.881 62.435 52.084 30.157a5.376 5.376 0 1 0-7.418 7.769l37.513 35.833a5.376 5.376 0 0 0 7.425 0l35.813-34.293v8.909a5.376 5.376 0 1 0 10.75 0V27.603a5.376 5.376 0 0 0-5.361-6.159zM86 89.584c-34.074 0-53.021 9.852-62.918 18.119-6.848 5.726-9.976 14.901-8.238 23.67.04.1 1.834 6.704 1.834 6.704 1.924 7.307 8.797 12.409 16.713 12.409.856 0 1.72-.06 2.568-.182l16.174-2.303c5.404-.77 9.803-4.7 10.946-9.777l3.192-14.137c.433-1.92 1.897-3.452 3.821-4.003 2.938-.835 8.078-1.834 15.908-1.834s12.966.999 15.901 1.834c1.924.548 3.395 2.079 3.828 4.003l3.185 14.137c1.146 5.078 5.542 9.007 10.946 9.777l16.18 2.303c.85.122 1.716.182 2.57.182 7.918 0 14.791-5.099 16.712-12.409 0 0 1.777-6.56 1.813-6.634 1.774-8.79-1.358-18-8.224-23.74-9.89-8.267-28.837-18.12-62.911-18.12z" fill="#1e3150"/></g></svg>