<svg xmlns="http://www.w3.org/2000/svg" viewBox="0 0 172 172"><g fill="none" stroke-miterlimit="10" font-family="none" font-weight="none" font-size="none" text-anchor="none" style="mix-blend-mode:normal"><path d="M0 172V0h172v172z"/><path d="M127.152 14.277a5.376 5.376 0 0 0-3.744 9.232l12.325 12.324H94.958a5.376 5.376 0 1 0 0 10.75h40.775l-12.325 12.325a5.376 5.376 0 1 0 7.6 7.6l21.5-21.5a5.376 5.376 0 0 0 0-7.6l-21.5-21.5a5.376 5.376 0 0 0-3.856-1.63zm-79.148.098c-1.79-.139-3.63.06-5.438.637l-7.712 2.47c-7.65 2.445-13.513 8.994-15.405 17.225-4.497 19.557.899 43.367 16.174 71.428 15.265 28.026 31.992 44.876 50.188 50.552 7.708 2.404 16.044.284 21.878-5.571l5.858-5.886c5.468-5.49 6.262-14.423 1.855-20.898l-8.833-12.976c-3.791-5.568-10.524-7.932-16.706-5.872l-13.423 4.48c-1.792.598-3.802.283-5.25-.931-5.464-4.59-10.1-10.163-13.906-16.706-3.812-6.558-6.272-13.206-7.383-19.946-.29-1.763.382-3.548 1.68-4.78l11.512-10.926c4.88-4.63 6.365-12.074 3.682-18.406l-6.16-14.53c-2.321-5.477-7.243-8.946-12.61-9.364z" fill="#1e3150"/></g></svg>