<?xml version="1.0" encoding="utf-8"?>
<!-- Generator: Adobe Illustrator 19.1.0, SVG Export Plug-In . SVG Version: 6.00 Build 0)  -->
<svg version="1.1" id="Layer_1" xmlns="http://www.w3.org/2000/svg" xmlns:xlink="http://www.w3.org/1999/xlink" x="0px" y="0px"
	 width="211.3px" height="159.3px" viewBox="0 0 211.3 159.3" style="enable-background:new 0 0 211.3 159.3;" xml:space="preserve"
	>
<style type="text/css">
	.st0{fill:#DCE0E2;}
	.st1{fill:#D7F1FF;}
	.st2{fill:#231F20;}
	.st3{fill:#FFFFFF;}
	.st4{fill:#252728;}
	.st5{fill:#008AFC;}
	.st6{fill:#4AB6FF;}
	.st7{fill:#C6C6C6;}
	.st8{fill:#F7F7F7;}
	.st9{fill:#D8D6D7;}
</style>
<g>
	<path class="st0" d="M187,110.1H44.5c-0.5,0-0.9,0.4-0.9,0.9v2.1l-2.6,2.6l2.6,2.6v26.8c0,0.5,0.4,0.9,0.9,0.9H187
		c0.5,0,0.9-0.4,0.9-0.9v-34C187.9,110.5,187.5,110.1,187,110.1z"/>
	<path class="st0" d="M187,27.1H44.5c-0.5,0-0.9,0.4-0.9,0.9V30l-2.6,2.6l2.6,2.6v64.8c0,0.5,0.4,0.9,0.9,0.9H187
		c0.5,0,0.9-0.4,0.9-0.9V28C187.9,27.5,187.5,27.1,187,27.1z"/>
	<path class="st1" d="M31.6,39.8H19.1c-0.5,0-0.9-0.4-0.9-0.9V26.5c0-0.5,0.4-0.9,0.9-0.9h12.5c0.5,0,0.9,0.4,0.9,0.9V39
		C32.5,39.4,32.1,39.8,31.6,39.8z"/>
	<path class="st2" d="M31.6,40.5H19.1c-0.8,0-1.5-0.7-1.5-1.5V26.5c0-0.8,0.7-1.5,1.5-1.5h12.5c0.8,0,1.5,0.7,1.5,1.5V39
		C33.1,39.8,32.5,40.5,31.6,40.5z M19.1,26.3c-0.1,0-0.2,0.1-0.2,0.2V39c0,0.1,0.1,0.2,0.2,0.2h12.5c0.1,0,0.2-0.1,0.2-0.2V26.5
		c0-0.1-0.1-0.2-0.2-0.2H19.1z"/>
	<path class="st3" d="M184.9,25.6H42.3c-0.5,0-0.9,0.4-0.9,0.9v2.1l-2.6,2.6l2.6,2.6v63.8c0,0.5,0.4,0.9,0.9,0.9h142.6
		c0.5,0,0.9-0.4,0.9-0.9v-71C185.8,26,185.4,25.6,184.9,25.6z"/>
	<path class="st4" d="M184.9,99.1H42.3c-0.8,0-1.5-0.7-1.5-1.5V34l-2.4-2.4c-0.1-0.1-0.2-0.3-0.2-0.5s0.1-0.3,0.2-0.5l2.4-2.4v-1.8
		c0-0.8,0.7-1.5,1.5-1.5h142.6c0.8,0,1.5,0.7,1.5,1.5v71C186.4,98.4,185.7,99.1,184.9,99.1z M39.8,31.2l2.1,2.1
		c0.1,0.1,0.2,0.3,0.2,0.5v63.8c0,0.1,0.1,0.2,0.2,0.2h142.6c0.1,0,0.2-0.1,0.2-0.2v-71c0-0.1-0.1-0.2-0.2-0.2H42.3
		c-0.1,0-0.2,0.1-0.2,0.2v2.1c0,0.2-0.1,0.3-0.2,0.5L39.8,31.2z"/>
	<g>
		<path class="st3" d="M31.1,39.2c0,0,0-2.5-1.3-2.9C29.1,36.1,28,35.7,27,35c-0.2-0.1-0.3-0.1-0.3-0.1h-0.1c0,0-0.1,0.1-0.1,0.1
			c0.4-0.3,0.7-0.8,1-1.5h0c0,0,0.2,0,0.4-0.4c0.3-0.6,0.8-1.7,0-1.9c0,0,0.5-1.5-0.4-1.8c0,0,0.1-1.4-2.1-1.2
			c-1.8,0.1-2.7,1.1-2.4,3.1c0,0-1-0.1-0.1,1.7c0.1,0.2,0.3,0.4,0.4,0.4h0c0.2,0.6,0.6,1.1,1,1.5c0,0-0.1-0.1-0.1-0.1h0
			c0,0-0.1,0-0.3,0.1c-1,0.6-2.2,0.9-2.7,1.3c-1.1,0.7-1.3,2.9-1.3,2.9 M26.3,35.1c0,0-0.1,0.1-0.1,0.1
			C26.2,35.2,26.3,35.2,26.3,35.1z M26,35.3c-0.1,0-0.1,0-0.2,0.1C25.9,35.3,26,35.3,26,35.3z M25.4,35.4c-0.1,0-0.2,0-0.3,0
			C25.2,35.4,25.3,35.4,25.4,35.4s0.2,0,0.3,0C25.6,35.4,25.5,35.4,25.4,35.4z M24.4,35.1c0,0,0.1,0.1,0.1,0.1
			C24.5,35.2,24.5,35.2,24.4,35.1z M24.7,35.3c0.1,0,0.1,0,0.2,0.1C24.9,35.3,24.8,35.3,24.7,35.3z"/>
		<path class="st2" d="M19.7,39.7C19.7,39.7,19.7,39.7,19.7,39.7c-0.3,0-0.5-0.2-0.4-0.5c0-0.2,0.3-2.5,1.5-3.2
			c0.3-0.2,0.6-0.3,1.1-0.5c0.5-0.2,1-0.4,1.5-0.7c-0.2-0.2-0.3-0.5-0.5-0.8c-0.2-0.1-0.4-0.3-0.5-0.6c-0.5-1-0.6-1.6-0.3-2
			c0.1-0.1,0.2-0.2,0.3-0.2c-0.1-0.9,0.1-1.7,0.5-2.3c0.5-0.6,1.3-1,2.3-1c1-0.1,1.7,0.2,2.2,0.6c0.3,0.3,0.4,0.6,0.4,0.8
			c0.1,0.1,0.3,0.2,0.3,0.4c0.2,0.4,0.2,1,0.1,1.4c0.1,0.1,0.2,0.2,0.3,0.3c0.3,0.6-0.1,1.3-0.3,1.8l-0.1,0.1
			c-0.1,0.3-0.3,0.4-0.5,0.5c-0.1,0.3-0.3,0.6-0.5,0.9c0.9,0.5,1.9,1,2.5,1.1c1.6,0.5,1.7,3,1.7,3.3c0,0.2-0.2,0.4-0.4,0.4h0
			c-0.2,0-0.4-0.2-0.4-0.4c0-0.6-0.2-2.2-1-2.5c-0.7-0.2-1.8-0.7-2.8-1.3c0,0,0,0,0,0c0,0,0,0,0,0c0,0-0.1,0.1-0.1,0.1
			c0,0-0.1,0.1-0.1,0.1c0,0-0.1,0-0.1,0c0,0-0.1,0.1-0.1,0.1c-0.1,0-0.1,0-0.2,0.1c0,0-0.1,0-0.1,0c0,0-0.1,0-0.1,0
			c-0.3,0.1-0.6,0.1-0.8,0c-0.1,0-0.1,0-0.2-0.1l0,0c-0.1,0-0.2,0-0.2-0.1c-0.1,0-0.1-0.1-0.2-0.1l0,0c-0.1,0-0.1-0.1-0.2-0.1
			c0,0-0.1-0.1-0.1-0.1c0,0,0,0,0,0c0,0,0,0,0,0c-0.6,0.4-1.3,0.6-1.8,0.8c-0.4,0.2-0.7,0.3-0.9,0.4c-0.8,0.5-1.1,2-1.1,2.6
			C20.1,39.5,20,39.7,19.7,39.7z M25.1,35C25.1,35,25.1,35,25.1,35c0.2,0,0.4,0,0.6,0c0,0,0,0,0,0c0,0,0,0,0.1,0c0,0,0.1,0,0.2,0
			c0,0,0.1,0,0.1-0.1c0,0,0.1,0,0.1-0.1c0,0,0-0.1,0.1-0.1c0,0,0,0,0,0c0,0,0,0,0,0l0,0c0,0,0,0,0,0c0.4-0.3,0.6-0.7,0.8-1.3
			c0-0.1,0.2-0.2,0.3-0.3c0,0,0.1,0,0.1-0.2l0.1-0.1c0.1-0.2,0.4-0.9,0.3-1.1c-0.1,0-0.3-0.1-0.3-0.2c-0.1-0.1-0.1-0.2-0.1-0.4
			c0.1-0.3,0.2-0.9,0-1.1c0-0.1-0.1-0.1-0.1-0.1c-0.2-0.1-0.3-0.3-0.3-0.5c0,0,0-0.2-0.2-0.4c-0.2-0.2-0.6-0.4-1.5-0.3
			c-0.8,0-1.3,0.3-1.7,0.7c-0.4,0.4-0.5,1.1-0.3,2c0,0.1,0,0.3-0.1,0.4c-0.1,0.1-0.2,0.2-0.4,0.1c0,0-0.1,0.3,0.3,1.1
			c0,0.1,0.1,0.1,0.1,0.2c0.2,0,0.3,0.1,0.4,0.3c0.2,0.5,0.5,1,0.8,1.3l0,0c0,0,0,0,0,0c0,0,0,0,0.1,0.1c0,0,0,0,0.1,0l0,0l0,0.1
			c0.1,0,0.1,0,0.2,0C24.9,34.9,25,34.9,25.1,35L25.1,35C25,35,25,35,25.1,35z"/>
	</g>
	<path class="st1" d="M63.4,83.9H50.9c-0.5,0-0.9-0.4-0.9-0.9V70.6c0-0.5,0.4-0.9,0.9-0.9h12.5c0.5,0,0.9,0.4,0.9,0.9v12.5
		C64.2,83.5,63.9,83.9,63.4,83.9z"/>
	<path class="st2" d="M63.4,84.6H50.9c-0.8,0-1.5-0.7-1.5-1.5V70.6c0-0.8,0.7-1.5,1.5-1.5h12.5c0.8,0,1.5,0.7,1.5,1.5v12.5
		C64.9,83.9,64.2,84.6,63.4,84.6z M50.9,70.4c-0.1,0-0.2,0.1-0.2,0.2v12.5c0,0.1,0.1,0.2,0.2,0.2h12.5c0.1,0,0.2-0.1,0.2-0.2V70.6
		c0-0.1-0.1-0.2-0.2-0.2H50.9z"/>
	<g>
		<path class="st3" d="M62.8,83.3c0,0,0-2.5-1.3-2.9c-0.6-0.2-1.7-0.6-2.7-1.3C58.5,79,58.4,79,58.4,79h-0.1c0,0-0.1,0.1-0.1,0.1
			c0.4-0.3,0.7-0.8,1-1.5h0c0,0,0.2,0,0.4-0.4c0.3-0.6,0.8-1.7,0-1.9c0,0,0.5-1.5-0.4-1.8c0,0,0.1-1.4-2.1-1.2
			c-1.8,0.1-2.7,1.1-2.4,3.1c0,0-1-0.1-0.1,1.7c0.1,0.2,0.3,0.4,0.4,0.4h0c0.2,0.6,0.6,1.1,1,1.5c0,0-0.1-0.1-0.1-0.1h0
			c0,0-0.1,0-0.3,0.1c-1,0.6-2.2,0.9-2.7,1.3c-1.1,0.7-1.3,2.9-1.3,2.9 M58.1,79.2c0,0-0.1,0.1-0.1,0.1C58,79.3,58,79.3,58.1,79.2z
			 M57.8,79.4c-0.1,0-0.1,0-0.2,0.1C57.6,79.4,57.7,79.4,57.8,79.4z M57.1,79.5c-0.1,0-0.2,0-0.3,0C56.9,79.5,57,79.5,57.1,79.5
			s0.2,0,0.3,0C57.3,79.5,57.2,79.5,57.1,79.5z M56.2,79.2c0,0,0.1,0.1,0.1,0.1C56.3,79.3,56.2,79.3,56.2,79.2z M56.5,79.4
			c0.1,0,0.1,0,0.2,0.1C56.6,79.4,56.5,79.4,56.5,79.4z"/>
		<path class="st2" d="M51.5,83.7C51.5,83.7,51.4,83.7,51.5,83.7c-0.3,0-0.5-0.2-0.4-0.5c0-0.2,0.3-2.5,1.5-3.2
			c0.3-0.2,0.6-0.3,1.1-0.5c0.5-0.2,1-0.4,1.5-0.7c-0.2-0.2-0.3-0.5-0.5-0.8c-0.2-0.1-0.4-0.3-0.5-0.6c-0.5-1-0.6-1.6-0.3-2
			c0.1-0.1,0.2-0.2,0.3-0.2c-0.1-0.9,0.1-1.7,0.5-2.3c0.5-0.6,1.3-1,2.3-1c1-0.1,1.7,0.2,2.2,0.6c0.3,0.3,0.4,0.6,0.4,0.8
			c0.1,0.1,0.3,0.2,0.3,0.4c0.2,0.4,0.2,1,0.1,1.4c0.1,0.1,0.2,0.2,0.3,0.3c0.3,0.6-0.1,1.3-0.3,1.8L60,77.4
			c-0.1,0.3-0.3,0.4-0.5,0.5c-0.1,0.3-0.3,0.6-0.5,0.9c0.9,0.5,1.9,1,2.5,1.1c1.6,0.5,1.7,3,1.7,3.3c0,0.2-0.2,0.4-0.4,0.4h0
			c-0.2,0-0.4-0.2-0.4-0.4c0-0.6-0.2-2.2-1-2.5c-0.7-0.2-1.8-0.7-2.8-1.3c0,0,0,0,0,0c0,0,0,0,0,0c0,0-0.1,0.1-0.1,0.1
			c0,0-0.1,0.1-0.1,0.1c0,0-0.1,0-0.1,0c0,0-0.1,0.1-0.1,0.1c-0.1,0-0.1,0-0.2,0.1c0,0-0.1,0-0.1,0c0,0-0.1,0-0.1,0
			c-0.3,0.1-0.6,0.1-0.8,0c-0.1,0-0.1,0-0.2-0.1l0,0c-0.1,0-0.2,0-0.2-0.1c-0.1,0-0.1-0.1-0.2-0.1l0,0c-0.1,0-0.1-0.1-0.2-0.1
			c0,0-0.1-0.1-0.1-0.1c0,0,0,0,0,0c0,0,0,0,0,0c-0.6,0.4-1.3,0.6-1.8,0.8c-0.4,0.2-0.7,0.3-0.9,0.4c-0.8,0.5-1.1,2-1.1,2.6
			C51.9,83.6,51.7,83.7,51.5,83.7z M56.8,79C56.8,79,56.9,79.1,56.8,79c0.2,0,0.4,0,0.6,0c0,0,0,0,0,0c0,0,0,0,0.1,0
			c0,0,0.1,0,0.2,0c0,0,0.1-0.1,0.1-0.1c0,0,0.1,0,0.1-0.1c0,0,0.1-0.1,0.1-0.1c0,0,0,0,0,0c0.4-0.3,0.6-0.7,0.8-1.3
			c0-0.1,0.2-0.2,0.3-0.3c0,0,0.1,0,0.1-0.2l0.1-0.1c0.1-0.2,0.4-0.9,0.3-1.1c-0.1,0-0.3-0.1-0.3-0.2c-0.1-0.1-0.1-0.2-0.1-0.4
			c0.1-0.3,0.2-0.9,0-1.1c0-0.1-0.1-0.1-0.1-0.1c-0.2-0.1-0.3-0.3-0.3-0.5c0,0,0-0.2-0.2-0.4c-0.2-0.2-0.6-0.4-1.5-0.3
			c-0.8,0-1.3,0.3-1.7,0.7c-0.4,0.4-0.5,1.1-0.3,2c0,0.1,0,0.3-0.1,0.4c-0.1,0.1-0.2,0.1-0.4,0.1c0,0-0.1,0.3,0.3,1.1
			c0,0.1,0.1,0.1,0.1,0.2c0.2,0,0.3,0.1,0.4,0.3c0.2,0.5,0.5,1,0.8,1.3c0,0,0,0,0,0c0,0,0,0,0.1,0.1c0,0,0,0,0.1,0l0,0c0,0,0,0,0,0
			l0,0l0,0.1c0.1,0,0.1,0,0.2,0C56.7,79,56.7,79,56.8,79L56.8,79C56.7,79.1,56.8,79,56.8,79z"/>
	</g>
	<path class="st2" d="M95.5,34.5h-45c-0.5,0-0.9-0.4-0.9-0.9s0.4-0.9,0.9-0.9h45c0.5,0,0.9,0.4,0.9,0.9S96,34.5,95.5,34.5z"/>
	<path class="st2" d="M123.5,34.5h-22.1c-0.5,0-0.9-0.4-0.9-0.9s0.4-0.9,0.9-0.9h22.1c0.5,0,0.9,0.4,0.9,0.9S124,34.5,123.5,34.5z"
		/>
	<path class="st5" d="M139.3,34.5H129c-0.5,0-0.9-0.4-0.9-0.9s0.4-0.9,0.9-0.9h10.3c0.5,0,0.9,0.4,0.9,0.9S139.7,34.5,139.3,34.5z"
		/>
	<path class="st2" d="M77.9,42.2H50.6c-0.4,0-0.7-0.3-0.7-0.7s0.3-0.7,0.7-0.7h27.4c0.4,0,0.7,0.3,0.7,0.7S78.3,42.2,77.9,42.2z"/>
	<path class="st2" d="M152,42.2h-27.4c-0.4,0-0.7-0.3-0.7-0.7s0.3-0.7,0.7-0.7H152c0.4,0,0.7,0.3,0.7,0.7S152.3,42.2,152,42.2z"/>
	<path class="st2" d="M104,42.2H82.7c-0.4,0-0.7-0.3-0.7-0.7s0.3-0.7,0.7-0.7H104c0.4,0,0.7,0.3,0.7,0.7S104.4,42.2,104,42.2z"/>
	<path class="st2" d="M119.9,42.2h-11.4c-0.4,0-0.7-0.3-0.7-0.7s0.3-0.7,0.7-0.7h11.4c0.4,0,0.7,0.3,0.7,0.7S120.2,42.2,119.9,42.2z
		"/>
	<path class="st6" d="M67.9,53.5H50.6c-0.3,0-0.5-0.2-0.5-0.5s0.2-0.5,0.5-0.5h17.3c0.3,0,0.5,0.2,0.5,0.5S68.2,53.5,67.9,53.5z"/>
	<path class="st6" d="M91.4,53.5H73.9c-0.3,0-0.5-0.2-0.5-0.5s0.2-0.5,0.5-0.5h17.5c0.3,0,0.5,0.2,0.5,0.5S91.7,53.5,91.4,53.5z"/>
	<path class="st7" d="M112.5,53.5H97.1c-0.3,0-0.5-0.2-0.5-0.5s0.2-0.5,0.5-0.5h15.4c0.3,0,0.5,0.2,0.5,0.5S112.8,53.5,112.5,53.5z"
		/>
	<circle class="st2" cx="173.1" cy="33.6" r="0.9"/>
	<circle class="st2" cx="175.7" cy="33.6" r="0.9"/>
	<circle class="st2" cx="178.4" cy="33.6" r="0.9"/>
	<path class="st1" d="M31.6,122.7H19.1c-0.5,0-0.9-0.4-0.9-0.9v-12.5c0-0.5,0.4-0.9,0.9-0.9h12.5c0.5,0,0.9,0.4,0.9,0.9v12.5
		C32.5,122.3,32.1,122.7,31.6,122.7z"/>
	<path class="st2" d="M31.6,123.4H19.1c-0.8,0-1.5-0.7-1.5-1.5v-12.5c0-0.8,0.7-1.5,1.5-1.5h12.5c0.8,0,1.5,0.7,1.5,1.5v12.5
		C33.1,122.7,32.5,123.4,31.6,123.4z M19.1,109.1c-0.1,0-0.2,0.1-0.2,0.2v12.5c0,0.1,0.1,0.2,0.2,0.2h12.5c0.1,0,0.2-0.1,0.2-0.2
		v-12.5c0-0.1-0.1-0.2-0.2-0.2H19.1z"/>
	<path class="st3" d="M184.9,108.5H42.3c-0.5,0-0.9,0.4-0.9,0.9v2.1l-2.6,2.6l2.6,2.6v25.9c0,0.5,0.4,0.9,0.9,0.9h142.6
		c0.5,0,0.9-0.4,0.9-0.9v-33.1C185.8,108.9,185.4,108.5,184.9,108.5z"/>
	<path class="st4" d="M184.9,144H42.3c-0.8,0-1.5-0.7-1.5-1.5v-25.6l-2.4-2.4c-0.1-0.1-0.2-0.3-0.2-0.5c0-0.2,0.1-0.3,0.2-0.5
		l2.4-2.4v-1.8c0-0.8,0.7-1.5,1.5-1.5h142.6c0.8,0,1.5,0.7,1.5,1.5v33.1C186.4,143.3,185.7,144,184.9,144z M39.8,114l2.1,2.1
		c0.1,0.1,0.2,0.3,0.2,0.5v25.9c0,0.1,0.1,0.2,0.2,0.2h142.6c0.1,0,0.2-0.1,0.2-0.2v-33.1c0-0.1-0.1-0.2-0.2-0.2H42.3
		c-0.1,0-0.2,0.1-0.2,0.2v2.1c0,0.2-0.1,0.3-0.2,0.5L39.8,114z"/>
	<g>
		<path class="st3" d="M31.1,122.1c0,0,0-2.5-1.3-2.9c-0.6-0.2-1.7-0.6-2.7-1.3c-0.2-0.1-0.3-0.1-0.3-0.1h-0.1c0,0-0.1,0.1-0.1,0.1
			c0.4-0.3,0.7-0.8,1-1.5h0c0,0,0.2,0,0.4-0.4c0.3-0.6,0.8-1.7,0-1.9c0,0,0.5-1.5-0.4-1.8c0,0,0.1-1.4-2.1-1.2
			c-1.8,0.1-2.7,1.1-2.4,3.1c0,0-1-0.1-0.1,1.7c0.1,0.2,0.3,0.4,0.4,0.4h0c0.2,0.6,0.6,1.1,1,1.5c0,0-0.1-0.1-0.1-0.1h0
			c0,0-0.1,0-0.3,0.1c-1,0.6-2.2,0.9-2.7,1.3c-1.1,0.7-1.3,2.9-1.3,2.9 M26.3,118c0,0-0.1,0.1-0.1,0.1C26.2,118.1,26.3,118,26.3,118
			z M26,118.2c-0.1,0-0.1,0-0.2,0.1C25.9,118.2,26,118.2,26,118.2z M25.4,118.3c-0.1,0-0.2,0-0.3,0
			C25.2,118.3,25.3,118.3,25.4,118.3s0.2,0,0.3,0C25.6,118.3,25.5,118.3,25.4,118.3z M24.4,118c0,0,0.1,0.1,0.1,0.1
			C24.5,118.1,24.5,118,24.4,118z M24.7,118.2c0.1,0,0.1,0,0.2,0.1C24.9,118.2,24.8,118.2,24.7,118.2z"/>
		<path class="st2" d="M19.7,122.5C19.7,122.5,19.7,122.5,19.7,122.5c-0.3,0-0.5-0.2-0.4-0.5c0-0.2,0.3-2.5,1.5-3.2
			c0.3-0.2,0.6-0.3,1.1-0.5c0.5-0.2,1-0.4,1.5-0.7c-0.2-0.2-0.3-0.5-0.5-0.8c-0.2-0.1-0.4-0.3-0.5-0.6c-0.5-1-0.6-1.6-0.3-2
			c0.1-0.1,0.2-0.2,0.3-0.2c-0.1-0.9,0.1-1.7,0.5-2.3c0.5-0.6,1.3-1,2.3-1c1-0.1,1.7,0.2,2.2,0.6c0.3,0.3,0.4,0.6,0.4,0.8
			c0.1,0.1,0.3,0.2,0.3,0.4c0.2,0.4,0.2,1,0.1,1.4c0.1,0.1,0.2,0.2,0.3,0.3c0.3,0.6-0.1,1.3-0.3,1.9l-0.1,0.1
			c-0.1,0.3-0.3,0.4-0.5,0.5c-0.1,0.3-0.3,0.6-0.5,0.9c0.9,0.5,1.9,1,2.5,1.1c1.6,0.5,1.7,3,1.7,3.3c0,0.2-0.2,0.4-0.4,0.4h0
			c-0.2,0-0.4-0.2-0.4-0.4c0-0.6-0.2-2.2-1-2.5c-0.7-0.2-1.8-0.7-2.8-1.3c0,0,0,0,0,0c0,0,0,0,0,0c0,0-0.1,0.1-0.1,0.1
			c0,0-0.1,0.1-0.1,0.1c0,0-0.1,0-0.1,0c0,0-0.1,0.1-0.1,0.1c-0.1,0-0.1,0-0.2,0.1c0,0-0.1,0-0.1,0c0,0-0.1,0-0.1,0.1
			c-0.3,0.1-0.6,0.1-0.8,0c-0.1,0-0.1,0-0.2-0.1l0,0c-0.1,0-0.2,0-0.2-0.1c-0.1,0-0.1-0.1-0.2-0.1l0,0c-0.1,0-0.1-0.1-0.2-0.1
			c0,0-0.1-0.1-0.1-0.1c0,0,0,0,0,0c0,0,0,0,0,0c-0.6,0.4-1.3,0.6-1.8,0.8c-0.4,0.2-0.7,0.3-0.9,0.4c-0.8,0.5-1.1,2-1.1,2.6
			C20.1,122.4,20,122.5,19.7,122.5z M25.1,117.8C25.1,117.8,25.1,117.8,25.1,117.8c0.3,0,0.4,0,0.6,0c0,0,0,0,0,0c0,0,0,0,0.1,0
			c0,0,0.1,0,0.2,0c0,0,0.1,0,0.1-0.1c0,0,0.1,0,0.1-0.1c0,0,0.1-0.1,0.1-0.1c0,0,0,0,0,0c0.4-0.3,0.6-0.7,0.8-1.3
			c0-0.1,0.2-0.2,0.3-0.3c0,0,0.1,0,0.1-0.2l0.1-0.1c0.1-0.2,0.4-0.9,0.3-1.1c-0.1,0-0.3-0.1-0.3-0.2c-0.1-0.1-0.1-0.2-0.1-0.4
			c0.1-0.3,0.2-0.9,0-1.1c0-0.1-0.1-0.1-0.1-0.1c-0.2-0.1-0.3-0.3-0.3-0.5c0,0,0-0.2-0.2-0.4c-0.2-0.2-0.6-0.4-1.5-0.3
			c-0.8,0-1.3,0.3-1.7,0.7c-0.4,0.4-0.5,1.1-0.3,2c0,0.1,0,0.3-0.1,0.4c-0.1,0.1-0.2,0.1-0.4,0.1c0,0-0.1,0.3,0.3,1.1
			c0,0.1,0.1,0.1,0.1,0.2c0.2,0,0.3,0.1,0.4,0.3c0.2,0.5,0.5,1,0.8,1.3l0,0l0,0c0,0,0,0,0.1,0.1c0,0,0,0,0.1,0l0,0l0,0.1
			c0.1,0,0.1,0,0.2,0L25.1,117.8L25.1,117.8C25,117.8,25,117.8,25.1,117.8z"/>
	</g>
	<path class="st2" d="M95.5,117.4h-45c-0.5,0-0.9-0.4-0.9-0.9s0.4-0.9,0.9-0.9h45c0.5,0,0.9,0.4,0.9,0.9S96,117.4,95.5,117.4z"/>
	<path class="st2" d="M123.5,117.4h-22.1c-0.5,0-0.9-0.4-0.9-0.9s0.4-0.9,0.9-0.9h22.1c0.5,0,0.9,0.4,0.9,0.9S124,117.4,123.5,117.4
		z"/>
	<path class="st5" d="M139.3,117.4H129c-0.5,0-0.9-0.4-0.9-0.9s0.4-0.9,0.9-0.9h10.3c0.5,0,0.9,0.4,0.9,0.9S139.7,117.4,139.3,117.4
		z"/>
	<path class="st2" d="M77.9,125.1H50.6c-0.4,0-0.7-0.3-0.7-0.7s0.3-0.7,0.7-0.7h27.4c0.4,0,0.7,0.3,0.7,0.7S78.3,125.1,77.9,125.1z"
		/>
	<path class="st2" d="M152,125.1h-27.4c-0.4,0-0.7-0.3-0.7-0.7s0.3-0.7,0.7-0.7H152c0.4,0,0.7,0.3,0.7,0.7S152.3,125.1,152,125.1z"
		/>
	<path class="st2" d="M104,125.1H82.7c-0.4,0-0.7-0.3-0.7-0.7s0.3-0.7,0.7-0.7H104c0.4,0,0.7,0.3,0.7,0.7S104.4,125.1,104,125.1z"/>
	<path class="st2" d="M119.9,125.1h-11.4c-0.4,0-0.7-0.3-0.7-0.7s0.3-0.7,0.7-0.7h11.4c0.4,0,0.7,0.3,0.7,0.7
		S120.2,125.1,119.9,125.1z"/>
	<path class="st6" d="M67.9,136.4H50.6c-0.3,0-0.5-0.2-0.5-0.5s0.2-0.5,0.5-0.5h17.3c0.3,0,0.5,0.2,0.5,0.5S68.2,136.4,67.9,136.4z"
		/>
	<path class="st6" d="M91.4,136.4H73.9c-0.3,0-0.5-0.2-0.5-0.5s0.2-0.5,0.5-0.5h17.5c0.3,0,0.5,0.2,0.5,0.5S91.7,136.4,91.4,136.4z"
		/>
	<path class="st7" d="M112.5,136.4H97.1c-0.3,0-0.5-0.2-0.5-0.5s0.2-0.5,0.5-0.5h15.4c0.3,0,0.5,0.2,0.5,0.5
		S112.8,136.4,112.5,136.4z"/>
	<circle class="st2" cx="173.1" cy="116.5" r="0.9"/>
	<circle class="st2" cx="175.7" cy="116.5" r="0.9"/>
	<circle class="st2" cx="178.4" cy="116.5" r="0.9"/>
	<line class="st8" x1="41.4" y1="61.2" x2="185.8" y2="61.2"/>
	<path class="st4" d="M185.8,61.9H41.4c-0.4,0-0.6-0.3-0.6-0.6s0.3-0.6,0.6-0.6h144.3c0.4,0,0.6,0.3,0.6,0.6S186.1,61.9,185.8,61.9z
		"/>
	<path class="st2" d="M118.5,71.5h-45c-0.5,0-0.9-0.4-0.9-0.9s0.4-0.9,0.9-0.9h45c0.5,0,0.9,0.4,0.9,0.9S119,71.5,118.5,71.5z"/>
	<path class="st2" d="M146.5,71.5h-22.1c-0.5,0-0.9-0.4-0.9-0.9s0.4-0.9,0.9-0.9h22.1c0.5,0,0.9,0.4,0.9,0.9S147,71.5,146.5,71.5z"
		/>
	<path class="st5" d="M162.2,71.5h-10.3c-0.5,0-0.9-0.4-0.9-0.9s0.4-0.9,0.9-0.9h10.3c0.5,0,0.9,0.4,0.9,0.9S162.7,71.5,162.2,71.5z
		"/>
	<path class="st2" d="M95.5,16.9h-45c-0.5,0-0.9-0.4-0.9-0.9s0.4-0.9,0.9-0.9h45c0.5,0,0.9,0.4,0.9,0.9S96,16.9,95.5,16.9z"/>
	<path class="st2" d="M123.5,16.9h-22.1c-0.5,0-0.9-0.4-0.9-0.9s0.4-0.9,0.9-0.9h22.1c0.5,0,0.9,0.4,0.9,0.9S124,16.9,123.5,16.9z"
		/>
	<path class="st2" d="M143.7,16.9H129c-0.5,0-0.9-0.4-0.9-0.9s0.4-0.9,0.9-0.9h14.7c0.5,0,0.9,0.4,0.9,0.9S144.2,16.9,143.7,16.9z"
		/>
	<path class="st2" d="M100.8,79.2H73.5c-0.4,0-0.7-0.3-0.7-0.7s0.3-0.7,0.7-0.7h27.4c0.4,0,0.7,0.3,0.7,0.7S101.2,79.2,100.8,79.2z"
		/>
	<path class="st2" d="M174.9,79.2h-27.4c-0.4,0-0.7-0.3-0.7-0.7s0.3-0.7,0.7-0.7h27.4c0.4,0,0.7,0.3,0.7,0.7S175.3,79.2,174.9,79.2z
		"/>
	<path class="st2" d="M126.9,79.2h-21.3c-0.4,0-0.7-0.3-0.7-0.7s0.3-0.7,0.7-0.7h21.3c0.4,0,0.7,0.3,0.7,0.7S127.3,79.2,126.9,79.2z
		"/>
	<path class="st2" d="M142.8,79.2h-11.4c-0.4,0-0.7-0.3-0.7-0.7s0.3-0.7,0.7-0.7h11.4c0.4,0,0.7,0.3,0.7,0.7S143.2,79.2,142.8,79.2z
		"/>
	<path class="st6" d="M90.8,90.6H73.5c-0.3,0-0.5-0.2-0.5-0.5s0.2-0.5,0.5-0.5h17.3c0.3,0,0.5,0.2,0.5,0.5S91.1,90.6,90.8,90.6z"/>
	<path class="st6" d="M114.3,90.6H96.8c-0.3,0-0.5-0.2-0.5-0.5s0.2-0.5,0.5-0.5h17.5c0.3,0,0.5,0.2,0.5,0.5S114.6,90.6,114.3,90.6z"
		/>
	<path class="st7" d="M135.4,90.6H120c-0.3,0-0.5-0.2-0.5-0.5s0.2-0.5,0.5-0.5h15.4c0.3,0,0.5,0.2,0.5,0.5S135.7,90.6,135.4,90.6z"
		/>
	<circle class="st9" cx="183.6" cy="16" r="2.2"/>
	<circle class="st9" cx="193" cy="115.6" r="2.2"/>
	<circle class="st9" cx="34.6" cy="50.9" r="2.2"/>
	<circle class="st9" cx="187.9" cy="20.4" r="0.7"/>
	<circle class="st9" cx="19.7" cy="21.1" r="0.7"/>
</g>
</svg>
